<?xml version="1.0" encoding="utf-8"?>
<svg version="1.1" xmlns:xlink="http://www.w3.org/1999/xlink" width="145px" height="141px" xmlns="http://www.w3.org/2000/svg">
  <defs>
    <filter x="159px" y="121px" width="145px" height="141px" filterUnits="userSpaceOnUse" id="filter288">
      <feOffset dx="2" dy="2" in="SourceAlpha" result="shadowOffsetInner" />
      <feGaussianBlur stdDeviation="1" in="shadowOffsetInner" result="shadowGaussian" />
      <feComposite in2="shadowGaussian" operator="atop" in="SourceAlpha" result="shadowComposite" />
      <feColorMatrix type="matrix" values="0 0 0 0 0  0 0 0 0 0  0 0 0 0 0  0 0 0 0.34901960784313724 0  " in="shadowComposite" />
    </filter>
    <g id="widget289">
      <path d="M 229.5 122  C 268.42 122  299 151.7  299 189.5  C 299 227.3  268.42 257  229.5 257  C 190.57999999999998 257  160 227.3  160 189.5  C 160 151.7  190.57999999999998 122  229.5 122  Z " fill-rule="nonzero" fill="#ffffff" stroke="none" />
      <path d="M 229.5 122  C 268.42 122  299 151.7  299 189.5  C 299 227.3  268.42 257  229.5 257  C 190.57999999999998 257  160 227.3  160 189.5  C 160 151.7  190.57999999999998 122  229.5 122  Z " stroke-width="2" stroke="#ed6940" fill="none" />
    </g>
  </defs>
  <g transform="matrix(1 0 0 1 -159 -121 )">
    <use xlink:href="#widget289" filter="url(#filter288)" />
    <use xlink:href="#widget289" />
  </g>
</svg>