<?xml version="1.0" encoding="utf-8"?>
<svg version="1.1" xmlns:xlink="http://www.w3.org/1999/xlink" width="217px" height="51px" xmlns="http://www.w3.org/2000/svg">
  <defs>
    <filter x="226px" y="426px" width="217px" height="51px" filterUnits="userSpaceOnUse" id="filter262">
      <feOffset dx="2" dy="2" in="SourceAlpha" result="shadowOffsetInner" />
      <feGaussianBlur stdDeviation="1" in="shadowOffsetInner" result="shadowGaussian" />
      <feComposite in2="shadowGaussian" operator="atop" in="SourceAlpha" result="shadowComposite" />
      <feColorMatrix type="matrix" values="0 0 0 0 0  0 0 0 0 0  0 0 0 0 0  0 0 0 0.11372549019607843 0  " in="shadowComposite" />
    </filter>
    <g id="widget263">
      <path d="M 226.5 436  A 9.5 9.5 0 0 1 236 426.5 L 429 426.5  A 9.5 9.5 0 0 1 438.5 436 L 438.5 463  A 9.5 9.5 0 0 1 429 472.5 L 236 472.5  A 9.5 9.5 0 0 1 226.5 463 L 226.5 436  Z " fill-rule="nonzero" fill="#f9d688" stroke="none" fill-opacity="0.33725490196078434" />
      <path d="M 226.5 436  A 9.5 9.5 0 0 1 236 426.5 L 429 426.5  A 9.5 9.5 0 0 1 438.5 436 L 438.5 463  A 9.5 9.5 0 0 1 429 472.5 L 236 472.5  A 9.5 9.5 0 0 1 226.5 463 L 226.5 436  Z " stroke-width="1" stroke="#ed6940" fill="none" />
    </g>
  </defs>
  <g transform="matrix(1 0 0 1 -226 -426 )">
    <use xlink:href="#widget263" filter="url(#filter262)" />
    <use xlink:href="#widget263" />
  </g>
</svg>