<?xml version="1.0" encoding="utf-8"?>
<svg version="1.1" xmlns:xlink="http://www.w3.org/1999/xlink" width="175px" height="158px" xmlns="http://www.w3.org/2000/svg">
  <defs>
    <filter x="263px" y="574px" width="175px" height="158px" filterUnits="userSpaceOnUse" id="filter272">
      <feOffset dx="2" dy="2" in="SourceAlpha" result="shadowOffsetInner" />
      <feGaussianBlur stdDeviation="1" in="shadowOffsetInner" result="shadowGaussian" />
      <feComposite in2="shadowGaussian" operator="atop" in="SourceAlpha" result="shadowComposite" />
      <feColorMatrix type="matrix" values="0 0 0 0 0  0 0 0 0 0  0 0 0 0 0  0 0 0 0.34901960784313724 0  " in="shadowComposite" />
    </filter>
    <g id="widget273">
      <path d="M 263 574  L 434 574  L 434 728  L 263 728  L 263 574  " fill-rule="nonzero" fill="#cccccc" stroke="none" />
      <path d="M 274 585  L 423 585  L 423 717  L 274 717  L 274 585  " fill-rule="nonzero" fill="#ffffff" stroke="none" />
      <path d="M 363.47 620.2  C 357.002 620.2  351.92 615.118  351.92 608.6500000000001  C 351.92 602.182  357.002 597.1  363.47 597.1  C 369.93800000000005 597.1  375.02000000000004 602.182  375.02000000000004 608.6500000000001  C 375.02000000000004 615.118  369.93800000000005 620.2  363.47 620.2  " fill-rule="nonzero" fill="#cccccc" stroke="none" />
      <path d="M 278 713  L 278 644.8  L 313.25 613.8  L 362.6 645.9964912280702  L 390.8 632.4  L 419 645.9964912280702  L 419 713  L 278 713  " fill-rule="nonzero" fill="#169bd5" stroke="none" />
    </g>
  </defs>
  <g transform="matrix(1 0 0 1 -263 -574 )">
    <use xlink:href="#widget273" filter="url(#filter272)" />
    <use xlink:href="#widget273" />
  </g>
</svg>