<?xml version="1.0" encoding="utf-8"?>
<svg version="1.1" xmlns:xlink="http://www.w3.org/1999/xlink" width="225px" height="201px" xmlns="http://www.w3.org/2000/svg">
  <g transform="matrix(1 0 0 1 -1029 -129 )">
    <path d="M 1029 129  L 1254 129  L 1254 330  L 1029 330  L 1029 129  " fill-rule="nonzero" fill="#cccccc" stroke="none" />
    <path d="M 1043 143  L 1240 143  L 1240 316  L 1043 316  L 1043 143  " fill-rule="nonzero" fill="#ffffff" stroke="none" />
    <path d="M 1161.075 189.3  C 1152.633 189.3  1146 182.66700000000003  1146 174.22500000000002  C 1146 165.78300000000002  1152.633 159.15  1161.075 159.15  C 1169.517 159.15  1176.15 165.78300000000002  1176.15 174.22500000000002  C 1176.15 182.66700000000003  1169.517 189.3  1161.075 189.3  " fill-rule="nonzero" fill="#cccccc" stroke="none" />
    <path d="M 1048 311  L 1048 221.35  L 1094.75 180.6  L 1160.2 223.632  L 1197.6 205.05  L 1235 223.632  L 1235 311  L 1048 311  " fill-rule="nonzero" fill="#169bd5" stroke="none" />
  </g>
</svg>